<mxfile host="Electron" modified="2023-10-31T15:01:17.499Z" agent="Mozilla/5.0 (Macintosh; Intel Mac OS X 10_15_7) AppleWebKit/537.36 (KHTML, like Gecko) draw.io/21.2.1 Chrome/112.0.5615.87 Electron/24.1.2 Safari/537.36" etag="lmCZqVSVLXouE9x8Nhtn" version="21.2.1" type="device">
  <diagram name="Page-1" id="Q2WsNeamgOwUXDiOcTpO">
    <mxGraphModel dx="958" dy="724" grid="1" gridSize="10" guides="1" tooltips="1" connect="1" arrows="1" fold="1" page="1" pageScale="1" pageWidth="827" pageHeight="1169" math="0" shadow="0">
      <root>
        <mxCell id="0" />
        <mxCell id="1" parent="0" />
        <mxCell id="3krVdvIV1Liqq8-mxp1C-1" value="&lt;font style=&quot;font-size: 12px;&quot;&gt;storage&lt;/font&gt;" style="rounded=0;whiteSpace=wrap;html=1;" parent="1" vertex="1">
          <mxGeometry x="143" y="199" width="120" height="60" as="geometry" />
        </mxCell>
        <mxCell id="3krVdvIV1Liqq8-mxp1C-5" value="&lt;u&gt;id&lt;/u&gt;" style="ellipse;whiteSpace=wrap;html=1;rounded=0;strokeColor=default;fontFamily=Helvetica;fontSize=12;fontColor=default;fillColor=default;" parent="1" vertex="1">
          <mxGeometry x="13" y="134" width="94" height="50" as="geometry" />
        </mxCell>
        <mxCell id="3krVdvIV1Liqq8-mxp1C-6" value="phone_number" style="ellipse;whiteSpace=wrap;html=1;rounded=0;strokeColor=default;fontFamily=Helvetica;fontSize=12;fontColor=default;fillColor=default;" parent="1" vertex="1">
          <mxGeometry x="13" y="274" width="94" height="50" as="geometry" />
        </mxCell>
        <mxCell id="3krVdvIV1Liqq8-mxp1C-7" value="name" style="ellipse;whiteSpace=wrap;html=1;rounded=0;strokeColor=default;fontFamily=Helvetica;fontSize=12;fontColor=default;fillColor=default;" parent="1" vertex="1">
          <mxGeometry x="13" y="201" width="94" height="56" as="geometry" />
        </mxCell>
        <mxCell id="3krVdvIV1Liqq8-mxp1C-8" value="" style="endArrow=none;html=1;rounded=0;fontFamily=Helvetica;fontSize=12;fontColor=default;exitX=1;exitY=0.5;exitDx=0;exitDy=0;entryX=0.25;entryY=0;entryDx=0;entryDy=0;" parent="1" source="3krVdvIV1Liqq8-mxp1C-5" target="3krVdvIV1Liqq8-mxp1C-1" edge="1">
          <mxGeometry width="50" height="50" relative="1" as="geometry">
            <mxPoint x="203" y="189" as="sourcePoint" />
            <mxPoint x="253" y="139" as="targetPoint" />
          </mxGeometry>
        </mxCell>
        <mxCell id="3krVdvIV1Liqq8-mxp1C-9" value="" style="endArrow=none;html=1;rounded=0;fontFamily=Helvetica;fontSize=12;fontColor=default;exitX=1;exitY=0.5;exitDx=0;exitDy=0;entryX=0;entryY=0.5;entryDx=0;entryDy=0;" parent="1" source="3krVdvIV1Liqq8-mxp1C-7" target="3krVdvIV1Liqq8-mxp1C-1" edge="1">
          <mxGeometry width="50" height="50" relative="1" as="geometry">
            <mxPoint x="203" y="189" as="sourcePoint" />
            <mxPoint x="253" y="139" as="targetPoint" />
          </mxGeometry>
        </mxCell>
        <mxCell id="3krVdvIV1Liqq8-mxp1C-13" value="" style="endArrow=none;html=1;rounded=0;fontFamily=Helvetica;fontSize=12;fontColor=default;exitX=1;exitY=0.5;exitDx=0;exitDy=0;entryX=0.25;entryY=1;entryDx=0;entryDy=0;" parent="1" source="3krVdvIV1Liqq8-mxp1C-6" target="3krVdvIV1Liqq8-mxp1C-1" edge="1">
          <mxGeometry width="50" height="50" relative="1" as="geometry">
            <mxPoint x="203" y="189" as="sourcePoint" />
            <mxPoint x="253" y="139" as="targetPoint" />
          </mxGeometry>
        </mxCell>
        <mxCell id="3krVdvIV1Liqq8-mxp1C-14" value="&lt;font style=&quot;font-size: 12px;&quot;&gt;waybill&lt;/font&gt;" style="rounded=0;whiteSpace=wrap;html=1;" parent="1" vertex="1">
          <mxGeometry x="553" y="199" width="120" height="60" as="geometry" />
        </mxCell>
        <mxCell id="3krVdvIV1Liqq8-mxp1C-15" value="&lt;u&gt;id&lt;/u&gt;" style="ellipse;whiteSpace=wrap;html=1;rounded=0;strokeColor=default;fontFamily=Helvetica;fontSize=12;fontColor=default;fillColor=default;" parent="1" vertex="1">
          <mxGeometry x="623" y="119" width="94" height="50" as="geometry" />
        </mxCell>
        <mxCell id="3krVdvIV1Liqq8-mxp1C-16" value="employee_name" style="ellipse;whiteSpace=wrap;html=1;rounded=0;strokeColor=default;fontFamily=Helvetica;fontSize=12;fontColor=default;fillColor=default;" parent="1" vertex="1">
          <mxGeometry x="483" y="119" width="100" height="50" as="geometry" />
        </mxCell>
        <mxCell id="3krVdvIV1Liqq8-mxp1C-17" value="name" style="ellipse;whiteSpace=wrap;html=1;rounded=0;strokeColor=default;fontFamily=Helvetica;fontSize=12;fontColor=default;fillColor=default;" parent="1" vertex="1">
          <mxGeometry x="566" y="70" width="94" height="50" as="geometry" />
        </mxCell>
        <mxCell id="3krVdvIV1Liqq8-mxp1C-18" value="" style="endArrow=none;html=1;rounded=0;fontFamily=Helvetica;fontSize=12;fontColor=default;exitX=0.5;exitY=1;exitDx=0;exitDy=0;entryX=0.75;entryY=0;entryDx=0;entryDy=0;" parent="1" source="3krVdvIV1Liqq8-mxp1C-15" target="3krVdvIV1Liqq8-mxp1C-14" edge="1">
          <mxGeometry width="50" height="50" relative="1" as="geometry">
            <mxPoint x="613" y="189" as="sourcePoint" />
            <mxPoint x="663" y="139" as="targetPoint" />
          </mxGeometry>
        </mxCell>
        <mxCell id="3krVdvIV1Liqq8-mxp1C-19" value="" style="endArrow=none;html=1;rounded=0;fontFamily=Helvetica;fontSize=12;fontColor=default;exitX=0.5;exitY=1;exitDx=0;exitDy=0;entryX=0.5;entryY=0;entryDx=0;entryDy=0;" parent="1" target="3krVdvIV1Liqq8-mxp1C-14" edge="1">
          <mxGeometry width="50" height="50" relative="1" as="geometry">
            <mxPoint x="613" y="119" as="sourcePoint" />
            <mxPoint x="663" y="139" as="targetPoint" />
          </mxGeometry>
        </mxCell>
        <mxCell id="3krVdvIV1Liqq8-mxp1C-20" value="" style="endArrow=none;html=1;rounded=0;fontFamily=Helvetica;fontSize=12;fontColor=default;exitX=0.5;exitY=1;exitDx=0;exitDy=0;entryX=0.25;entryY=0;entryDx=0;entryDy=0;" parent="1" source="3krVdvIV1Liqq8-mxp1C-16" target="3krVdvIV1Liqq8-mxp1C-14" edge="1">
          <mxGeometry width="50" height="50" relative="1" as="geometry">
            <mxPoint x="613" y="189" as="sourcePoint" />
            <mxPoint x="663" y="139" as="targetPoint" />
          </mxGeometry>
        </mxCell>
        <mxCell id="3krVdvIV1Liqq8-mxp1C-21" value="employee_position" style="ellipse;whiteSpace=wrap;html=1;rounded=0;strokeColor=default;fontFamily=Helvetica;fontSize=12;fontColor=default;fillColor=default;" parent="1" vertex="1">
          <mxGeometry x="703" y="234" width="110" height="50" as="geometry" />
        </mxCell>
        <mxCell id="3krVdvIV1Liqq8-mxp1C-22" value="date" style="ellipse;whiteSpace=wrap;html=1;rounded=0;strokeColor=default;fontFamily=Helvetica;fontSize=12;fontColor=default;fillColor=default;" parent="1" vertex="1">
          <mxGeometry x="703" y="179" width="94" height="50" as="geometry" />
        </mxCell>
        <mxCell id="3krVdvIV1Liqq8-mxp1C-23" value="&lt;font style=&quot;font-size: 12px;&quot;&gt;equipment&lt;/font&gt;" style="rounded=0;whiteSpace=wrap;html=1;" parent="1" vertex="1">
          <mxGeometry x="553" y="533" width="120" height="60" as="geometry" />
        </mxCell>
        <mxCell id="3krVdvIV1Liqq8-mxp1C-24" value="&lt;u&gt;id&lt;/u&gt;" style="ellipse;whiteSpace=wrap;html=1;rounded=0;strokeColor=default;fontFamily=Helvetica;fontSize=12;fontColor=default;fillColor=default;" parent="1" vertex="1">
          <mxGeometry x="699" y="498" width="94" height="50" as="geometry" />
        </mxCell>
        <mxCell id="3krVdvIV1Liqq8-mxp1C-26" value="name" style="ellipse;whiteSpace=wrap;html=1;rounded=0;strokeColor=default;fontFamily=Helvetica;fontSize=12;fontColor=default;fillColor=default;" parent="1" vertex="1">
          <mxGeometry x="699" y="568" width="94" height="50" as="geometry" />
        </mxCell>
        <mxCell id="3krVdvIV1Liqq8-mxp1C-27" value="" style="endArrow=none;html=1;rounded=0;fontFamily=Helvetica;fontSize=12;fontColor=default;exitX=0;exitY=0.5;exitDx=0;exitDy=0;entryX=1;entryY=0.25;entryDx=0;entryDy=0;" parent="1" source="3krVdvIV1Liqq8-mxp1C-24" target="3krVdvIV1Liqq8-mxp1C-23" edge="1">
          <mxGeometry width="50" height="50" relative="1" as="geometry">
            <mxPoint x="613" y="523" as="sourcePoint" />
            <mxPoint x="663" y="473" as="targetPoint" />
          </mxGeometry>
        </mxCell>
        <mxCell id="3krVdvIV1Liqq8-mxp1C-28" value="" style="endArrow=none;html=1;rounded=0;fontFamily=Helvetica;fontSize=12;fontColor=default;exitX=0;exitY=0.5;exitDx=0;exitDy=0;entryX=1;entryY=0.75;entryDx=0;entryDy=0;" parent="1" source="3krVdvIV1Liqq8-mxp1C-26" target="3krVdvIV1Liqq8-mxp1C-23" edge="1">
          <mxGeometry width="50" height="50" relative="1" as="geometry">
            <mxPoint x="613" y="523" as="sourcePoint" />
            <mxPoint x="663" y="473" as="targetPoint" />
          </mxGeometry>
        </mxCell>
        <mxCell id="3krVdvIV1Liqq8-mxp1C-30" value="" style="endArrow=none;html=1;rounded=0;fontFamily=Helvetica;fontSize=12;fontColor=default;exitX=0;exitY=0.5;exitDx=0;exitDy=0;entryX=1;entryY=0.75;entryDx=0;entryDy=0;" parent="1" source="3krVdvIV1Liqq8-mxp1C-21" target="3krVdvIV1Liqq8-mxp1C-14" edge="1">
          <mxGeometry width="50" height="50" relative="1" as="geometry">
            <mxPoint x="463" y="259" as="sourcePoint" />
            <mxPoint x="513" y="209" as="targetPoint" />
          </mxGeometry>
        </mxCell>
        <mxCell id="3krVdvIV1Liqq8-mxp1C-32" value="" style="endArrow=none;html=1;rounded=0;fontFamily=Helvetica;fontSize=12;fontColor=default;exitX=0;exitY=0.5;exitDx=0;exitDy=0;entryX=1;entryY=0.25;entryDx=0;entryDy=0;" parent="1" source="3krVdvIV1Liqq8-mxp1C-22" target="3krVdvIV1Liqq8-mxp1C-14" edge="1">
          <mxGeometry width="50" height="50" relative="1" as="geometry">
            <mxPoint x="463" y="259" as="sourcePoint" />
            <mxPoint x="513" y="209" as="targetPoint" />
          </mxGeometry>
        </mxCell>
        <mxCell id="3krVdvIV1Liqq8-mxp1C-33" value="refers to" style="rhombus;whiteSpace=wrap;html=1;rounded=0;strokeColor=default;fontFamily=Helvetica;fontSize=12;fontColor=default;fillColor=default;" parent="1" vertex="1">
          <mxGeometry x="343" y="189" width="140" height="80" as="geometry" />
        </mxCell>
        <mxCell id="3krVdvIV1Liqq8-mxp1C-34" value="" style="endArrow=none;html=1;rounded=0;fontFamily=Helvetica;fontSize=12;fontColor=default;exitX=1;exitY=0.5;exitDx=0;exitDy=0;entryX=0;entryY=0.5;entryDx=0;entryDy=0;" parent="1" source="3krVdvIV1Liqq8-mxp1C-1" target="3krVdvIV1Liqq8-mxp1C-33" edge="1">
          <mxGeometry width="50" height="50" relative="1" as="geometry">
            <mxPoint x="413" y="264" as="sourcePoint" />
            <mxPoint x="463" y="214" as="targetPoint" />
          </mxGeometry>
        </mxCell>
        <mxCell id="3krVdvIV1Liqq8-mxp1C-35" value="" style="endArrow=none;html=1;rounded=0;fontFamily=Helvetica;fontSize=12;fontColor=default;exitX=0;exitY=0.5;exitDx=0;exitDy=0;entryX=1;entryY=0.5;entryDx=0;entryDy=0;" parent="1" source="3krVdvIV1Liqq8-mxp1C-14" target="3krVdvIV1Liqq8-mxp1C-33" edge="1">
          <mxGeometry width="50" height="50" relative="1" as="geometry">
            <mxPoint x="413" y="259" as="sourcePoint" />
            <mxPoint x="483.70000000000005" y="228.88" as="targetPoint" />
          </mxGeometry>
        </mxCell>
        <mxCell id="3krVdvIV1Liqq8-mxp1C-36" value="N" style="text;html=1;align=center;verticalAlign=middle;resizable=0;points=[];autosize=1;strokeColor=none;fillColor=none;fontSize=12;fontFamily=Helvetica;fontColor=default;" parent="1" vertex="1">
          <mxGeometry x="468" y="189" width="30" height="30" as="geometry" />
        </mxCell>
        <mxCell id="3krVdvIV1Liqq8-mxp1C-37" value="1" style="text;html=1;align=center;verticalAlign=middle;resizable=0;points=[];autosize=1;strokeColor=none;fillColor=none;fontSize=12;fontFamily=Helvetica;fontColor=default;" parent="1" vertex="1">
          <mxGeometry x="332" y="189" width="30" height="30" as="geometry" />
        </mxCell>
        <mxCell id="3krVdvIV1Liqq8-mxp1C-39" value="contains information about" style="rhombus;whiteSpace=wrap;html=1;rounded=0;strokeColor=default;fontFamily=Helvetica;fontSize=12;fontColor=default;fillColor=default;" parent="1" vertex="1">
          <mxGeometry x="525.5" y="354" width="175" height="90" as="geometry" />
        </mxCell>
        <mxCell id="3krVdvIV1Liqq8-mxp1C-40" value="" style="endArrow=none;html=1;rounded=0;fontFamily=Helvetica;fontSize=12;fontColor=default;entryX=0.5;entryY=1;entryDx=0;entryDy=0;" parent="1" source="3krVdvIV1Liqq8-mxp1C-39" target="3krVdvIV1Liqq8-mxp1C-14" edge="1">
          <mxGeometry width="50" height="50" relative="1" as="geometry">
            <mxPoint x="583" y="394" as="sourcePoint" />
            <mxPoint x="633" y="344" as="targetPoint" />
          </mxGeometry>
        </mxCell>
        <mxCell id="3krVdvIV1Liqq8-mxp1C-41" value="" style="endArrow=none;html=1;rounded=0;fontFamily=Helvetica;fontSize=12;fontColor=default;exitX=0.5;exitY=0;exitDx=0;exitDy=0;entryX=0.5;entryY=1;entryDx=0;entryDy=0;" parent="1" source="3krVdvIV1Liqq8-mxp1C-23" target="3krVdvIV1Liqq8-mxp1C-39" edge="1">
          <mxGeometry width="50" height="50" relative="1" as="geometry">
            <mxPoint x="613" y="524" as="sourcePoint" />
            <mxPoint x="633" y="434" as="targetPoint" />
          </mxGeometry>
        </mxCell>
        <mxCell id="kxmc_iL9VvFgXYaeEr9y-1" value="equip_count" style="ellipse;whiteSpace=wrap;html=1;rounded=0;strokeColor=default;fontFamily=Helvetica;fontSize=12;fontColor=default;fillColor=default;" parent="1" vertex="1">
          <mxGeometry x="370" y="374" width="98" height="50" as="geometry" />
        </mxCell>
        <mxCell id="kxmc_iL9VvFgXYaeEr9y-2" value="" style="endArrow=none;html=1;rounded=0;exitX=1;exitY=0.5;exitDx=0;exitDy=0;entryX=0;entryY=0.5;entryDx=0;entryDy=0;" parent="1" source="kxmc_iL9VvFgXYaeEr9y-1" target="3krVdvIV1Liqq8-mxp1C-39" edge="1">
          <mxGeometry width="50" height="50" relative="1" as="geometry">
            <mxPoint x="463" y="414" as="sourcePoint" />
            <mxPoint x="513" y="364" as="targetPoint" />
          </mxGeometry>
        </mxCell>
        <mxCell id="kVCraUgl45dRB7pefNrB-1" value="N" style="text;html=1;align=center;verticalAlign=middle;resizable=0;points=[];autosize=1;strokeColor=none;fillColor=none;" vertex="1" parent="1">
          <mxGeometry x="623" y="324" width="30" height="30" as="geometry" />
        </mxCell>
        <mxCell id="kVCraUgl45dRB7pefNrB-2" value="N" style="text;html=1;align=center;verticalAlign=middle;resizable=0;points=[];autosize=1;strokeColor=none;fillColor=none;" vertex="1" parent="1">
          <mxGeometry x="623" y="438" width="30" height="30" as="geometry" />
        </mxCell>
      </root>
    </mxGraphModel>
  </diagram>
</mxfile>
